<?xml version="1.0" ?><svg height="32" id="svg5" version="1.1" viewBox="0 0 32 32" width="32" xmlns="http://www.w3.org/2000/svg" xmlns:svg="http://www.w3.org/2000/svg"><defs id="defs2"/><g id="layer1" transform="translate(-60,-52)"><path d="m 75,55 c -6.063281,0 -11,4.936719 -11,11 0,6.063281 4.936719,11 11,11 a 1.0001,1.0001 0 0 0 0.002,0 c 1.627335,-0.0036 3.233798,-0.368959 4.703125,-1.068359 A 1,1 0 0 0 80.177781,74.599609 1,1 0 0 0 78.84575,74.126953 C 77.644047,74.698942 76.330778,74.996746 75,75 c -4.982402,0 -9,-4.017598 -9,-9 0,-4.982402 4.017598,-9 9,-9 4.981735,0 8.998925,4.01657 9,8.998047 -0.003,1.331469 -0.300788,2.645433 -0.873047,3.847656 a 1,1 0 0 0 0.472656,1.332031 1,1 0 0 0 1.332032,-0.472656 C 85.631047,69.235738 85.996332,67.629257 86,66.001953 A 1.0001,1.0001 0 0 0 86,66 C 86,59.936719 81.063281,55 75,55 Z" id="circle10086" style="color:#000000;fill:#002cba;fill-opacity:1;fill-rule:evenodd;stroke-linecap:round;stroke-linejoin:round;stroke-miterlimit:4.1;-inkscape-stroke:none"/><path d="M 75,59.615234 C 71.485584,59.615135 68.615135,62.485584 68.615234,66 68.615135,69.514416 71.485584,72.384865 75,72.384766 a 1.0001,1.0001 0 0 0 0.002,0 c 0.944887,-0.0023 1.877526,-0.214752 2.730469,-0.621094 a 1,1 0 0 0 0.472656,-1.332031 1,1 0 0 0 -1.332031,-0.472657 C 76.28779,70.237801 75.648158,70.382935 75,70.384766 72.566503,70.384834 70.615166,68.433497 70.615234,66 70.615166,63.566503 72.566503,61.615166 75,61.615234 c 2.432829,-6.8e-5 4.383764,1.950248 4.384766,4.382813 -0.0016,0.648887 -0.146702,1.289191 -0.425782,1.875 a 1,1 0 0 0 0.472657,1.332031 1,1 0 0 0 1.332031,-0.472656 c 0.406356,-0.852972 0.618791,-1.785652 0.621094,-2.730469 a 1.0001,1.0001 0 0 0 0,-0.002 C 81.384865,62.485584 78.514416,59.615135 75,59.615234 Z" id="path10084" style="color:#000000;fill:#002cba;fill-opacity:1;fill-rule:evenodd;stroke-linecap:round;stroke-linejoin:round;stroke-miterlimit:4.1;-inkscape-stroke:none"/><path d="m 75.427734,65.095703 a 1.0001,1.0001 0 0 0 -1.332031,1.332031 l 6.365234,13.435547 a 1.0001,1.0001 0 0 0 1.873047,-0.185547 l 1.269532,-5.074218 5.074218,-1.269532 a 1.0001,1.0001 0 0 0 0.185547,-1.873047 z m 1.675782,3.007813 8.378906,3.96875 -2.947266,0.736328 a 1.0001,1.0001 0 0 0 -0.726562,0.726562 l -0.736328,2.947266 z" id="rect10088" style="color:#000000;fill:#00c89f;fill-opacity:1;fill-rule:evenodd;stroke-linecap:round;stroke-linejoin:round;stroke-miterlimit:4.1;-inkscape-stroke:none"/></g></svg>